Coordinates
nRows=237
nColumns=2
inDegrees=yes
endheader
time	ankle_angle_r	
3.45968	  9.490594	
3.49294	  9.463070	
3.52621	  9.442426	
3.55948	  9.433788	
3.59274	  9.432441	
3.62601	  9.430610	
3.65927	  9.426692	
3.69254	  9.422720	
3.72581	  9.419511	
3.75907	  9.412940	
3.79234	  9.401169	
3.8256	  9.393737	
3.85887	  9.397533	
3.89214	  9.403321	
3.9254	  9.400167	
3.95867	  9.391045	
3.99194	  9.388385	
4.0252	  9.399652	
4.05847	  9.418608	
4.09173	  9.436181	
4.125	  9.453193	
4.15827	  9.471846	
4.19153	  9.489621	
4.2248	  9.503708	
4.25806	  9.508876	
4.29133	  9.503564	
4.3246	  9.496691	
4.35786	  9.494549	
4.39113	  9.495291	
4.4244	  9.497534	
4.45766	  9.500898	
4.49093	  9.505737	
4.52419	  9.515202	
4.55746	  9.528068	
4.59073	  9.535966	
4.62399	  9.534505	
4.65726	  9.526601	
4.69052	  9.517277	
4.72379	  9.511562	
4.75706	  9.509859	
4.79032	  9.509374	
4.82359	  9.510909	
4.85685	  9.512708	
4.89012	  9.505144	
4.92339	  9.484821	
4.95665	  9.462182	
4.98992	  9.444679	
5.02319	  9.428167	
5.05645	  9.411673	
5.08972	  9.404400	
5.12298	  9.411589	
5.15625	  9.425010	
5.18952	  9.434034	
5.22278	  9.435286	
5.25605	  9.427690	
5.28931	  9.414413	
5.32258	  9.406816	
5.35585	  9.409533	
5.38911	  9.413714	
5.42238	  9.413286	
5.45565	  9.411202	
5.48891	  9.411938	
5.52218	  9.418672	
5.55544	  9.429969	
5.58871	  9.442052	
5.62198	  9.456883	
5.65524	  9.474544	
5.68851	  9.487574	
5.72177	  9.494008	
5.75504	  9.498847	
5.78831	  9.502639	
5.82157	  9.503725	
5.85484	  9.504148	
5.8881	  9.505693	
5.92137	  9.507684	
5.95464	  9.509511	
5.9879	  9.511180	
6.02117	  9.512857	
6.05444	  9.513848	
6.0877	  9.511379	
6.12097	  9.502866	
6.15423	  9.490372	
6.1875	  9.483192	
6.22077	  9.490283	
6.25403	  9.507595	
6.2873	  9.523042	
6.32056	  9.530558	
6.35383	  9.531072	
6.3871	  9.526167	
6.42036	  9.514291	
6.45363	  9.497322	
6.4869	  9.490356	
6.52016	  9.506095	
6.55343	  9.531979	
6.58669	  9.545672	
6.61996	  9.543739	
6.65323	  9.538363	
6.68649	  9.536692	
6.71976	  9.534659	
6.75302	  9.528349	
6.78629	  9.522615	
6.81956	  9.523208	
6.85282	  9.525632	
6.88609	  9.520865	
6.91935	  9.509221	
6.95262	  9.499789	
6.98589	  9.498764	
7.01915	  9.502596	
7.05242	  9.502170	
7.08569	  9.494450	
7.11895	  9.485420	
7.15222	  9.479062	
7.18548	  9.473286	
7.21875	  9.467351	
7.25202	  9.464155	
7.28528	  9.465690	
7.31855	  9.467721	
7.35181	  9.463828	
7.38508	  9.458713	
7.41835	  9.462373	
7.45161	  9.468295	
7.48488	  9.461440	
7.51815	  9.443814	
7.55141	  9.428141	
7.58468	  9.418803	
7.61794	  9.412168	
7.65121	  9.405846	
7.68448	  9.405636	
7.71774	  9.416733	
7.75101	  9.430563	
7.78427	  9.437732	
7.81754	  9.443011	
7.85081	  9.452491	
7.88407	  9.460343	
7.91734	  9.457847	
7.9506	  9.447750	
7.98387	  9.444325	
8.01714	  9.454224	
8.0504	  9.464790	
8.08367	  9.463771	
8.11694	  9.455195	
8.1502	  9.448453	
8.18347	  9.446248	
8.21673	  9.445127	
8.25	  9.444084	
8.28327	  9.448405	
8.31653	  9.458441	
8.3498	  9.462585	
8.38306	  9.455215	
8.41633	  9.448208	
8.4496	  9.451701	
8.48286	  9.460754	
8.51613	  9.464673	
8.5494	  9.458597	
8.58266	  9.447006	
8.61593	  9.437377	
8.64919	  9.433456	
8.68246	  9.436905	
8.71573	  9.446518	
8.74899	  9.453803	
8.78226	  9.452509	
8.81552	  9.447709	
8.84879	  9.445138	
8.88206	  9.445156	
8.91532	  9.446210	
8.94859	  9.445679	
8.98185	  9.445443	
9.01512	  9.450351	
9.04839	  9.456520	
9.08165	  9.454986	
9.11492	  9.444337	
9.14819	  9.431820	
9.18145	  9.428942	
9.21472	  9.442100	
9.24798	  9.464543	
9.28125	  9.485349	
9.31452	  9.498200	
9.34778	  9.498080	
9.38105	  9.486299	
9.41431	  9.477255	
9.44758	  9.484446	
9.48085	  9.506160	
9.51411	  9.531083	
9.54738	  9.550132	
9.58065	  9.560957	
9.61391	  9.563170	
9.64718	  9.557495	
9.68044	  9.550015	
9.71371	  9.545633	
9.74698	  9.543877	
9.78024	  9.546220	
9.81351	  9.552285	
9.84677	  9.554754	
9.88004	  9.552833	
9.91331	  9.554194	
9.94657	  9.560619	
9.97984	  9.568392	
10.0131	  9.572925	
10.0464	  9.567583	
10.0796	  9.550502	
10.1129	  9.528634	
10.1462	  9.508204	
10.1794	  9.490369	
10.2127	  9.476201	
10.246	  9.467473	
10.2792	  9.466198	
10.3125	  9.470239	
10.3458	  9.472230	
10.379	  9.472583	
10.4123	  9.478813	
10.4456	  9.490681	
10.4788	  9.500224	
10.5121	  9.500700	
10.5454	  9.493518	
10.5786	  9.486292	
10.6119	  9.480369	
10.6452	  9.471594	
10.6784	  9.463795	
10.7117	  9.465259	
10.745	  9.474009	
10.7782	  9.479569	
10.8115	  9.478093	
10.8448	  9.479591	
10.878	  9.495942	
10.9113	  9.521322	
10.9446	  9.538183	
10.9778	  9.543326	
11.0111	  9.547101	
11.0444	  9.553804	
11.0776	  9.559627	
11.1109	  9.559204	
11.1442	  9.552121	
11.1774	  9.544477	
11.2107	  9.539637	
11.244	  9.538964	
11.2772	  9.549344	
11.3105	  9.572740	
